<?xml version="1.0" encoding="UTF-8" standalone="no"?><svg xmlns="http://www.w3.org/2000/svg" xmlns:xlink="http://www.w3.org/1999/xlink" contentScriptType="application/ecmascript" contentStyleType="text/css" height="231px" preserveAspectRatio="none" style="width:347px;height:231px;background:#FFFFFF;" version="1.1" viewBox="0 0 347 231" width="347px" zoomAndPan="magnify"><defs><filter height="300%" id="f1op4tud5hlgg6" width="300%" x="-1" y="-1"><feGaussianBlur result="blurOut" stdDeviation="2.0"/><feColorMatrix in="blurOut" result="blurOut2" type="matrix" values="0 0 0 0 0 0 0 0 0 0 0 0 0 0 0 0 0 0 .4 0"/><feOffset dx="4.0" dy="4.0" in="blurOut2" result="blurOut3"/><feBlend in="SourceGraphic" in2="blurOut3" mode="normal"/></filter></defs><g><rect fill="#FFFFFF" filter="url(#f1op4tud5hlgg6)" height="108.5313" style="stroke:#A80036;stroke-width:1.0;" width="10" x="18.5" y="98.2969"/><rect fill="#FFFFFF" filter="url(#f1op4tud5hlgg6)" height="29.1328" style="stroke:#A80036;stroke-width:1.0;" width="10" x="308.5" y="119.4297"/><rect fill="#FFFFFF" filter="url(#f1op4tud5hlgg6)" height="29.1328" style="stroke:#A80036;stroke-width:1.0;" width="10" x="308.5" y="177.6953"/><line style="stroke:#A80036;stroke-width:1.0;stroke-dasharray:5.0,5.0;" x1="23" x2="23" y1="88.2969" y2="224.8281"/><line style="stroke:#A80036;stroke-width:1.0;stroke-dasharray:5.0,5.0;" x1="313" x2="313" y1="88.2969" y2="224.8281"/><text fill="#000000" font-family="sans-serif" font-size="14" lengthAdjust="spacing" textLength="31" x="5" y="84.9951">User</text><ellipse cx="23.5" cy="15" fill="#FEFECE" filter="url(#f1op4tud5hlgg6)" rx="8" ry="8" style="stroke:#A80036;stroke-width:2.0;"/><path d="M23.5,23 L23.5,50 M10.5,31 L36.5,31 M23.5,50 L10.5,65 M23.5,50 L36.5,65 " fill="none" filter="url(#f1op4tud5hlgg6)" style="stroke:#A80036;stroke-width:2.0;"/><text fill="#000000" font-family="sans-serif" font-size="14" lengthAdjust="spacing" textLength="59" x="281" y="84.9951">:System</text><ellipse cx="313.5" cy="15" fill="#FEFECE" filter="url(#f1op4tud5hlgg6)" rx="8" ry="8" style="stroke:#A80036;stroke-width:2.0;"/><path d="M313.5,23 L313.5,50 M300.5,31 L326.5,31 M313.5,50 L300.5,65 M313.5,50 L326.5,65 " fill="none" filter="url(#f1op4tud5hlgg6)" style="stroke:#A80036;stroke-width:2.0;"/><rect fill="#FFFFFF" filter="url(#f1op4tud5hlgg6)" height="108.5313" style="stroke:#A80036;stroke-width:1.0;" width="10" x="18.5" y="98.2969"/><rect fill="#FFFFFF" filter="url(#f1op4tud5hlgg6)" height="29.1328" style="stroke:#A80036;stroke-width:1.0;" width="10" x="308.5" y="119.4297"/><rect fill="#FFFFFF" filter="url(#f1op4tud5hlgg6)" height="29.1328" style="stroke:#A80036;stroke-width:1.0;" width="10" x="308.5" y="177.6953"/><polygon fill="#A80036" points="296.5,115.4297,306.5,119.4297,296.5,123.4297,300.5,119.4297" style="stroke:#A80036;stroke-width:1.0;"/><line style="stroke:#A80036;stroke-width:1.0;" x1="28.5" x2="302.5" y1="119.4297" y2="119.4297"/><text fill="#000000" font-family="sans-serif" font-size="13" font-weight="bold" lengthAdjust="spacing" textLength="9" x="35.5" y="114.3638">1</text><text fill="#000000" font-family="sans-serif" font-size="13" lengthAdjust="spacing" textLength="170" x="48.5" y="114.3638">iniciates the profile update</text><polygon fill="#A80036" points="39.5,144.5625,29.5,148.5625,39.5,152.5625,35.5,148.5625" style="stroke:#A80036;stroke-width:1.0;"/><line style="stroke:#A80036;stroke-width:1.0;stroke-dasharray:2.0,2.0;" x1="33.5" x2="312.5" y1="148.5625" y2="148.5625"/><text fill="#000000" font-family="sans-serif" font-size="13" font-weight="bold" lengthAdjust="spacing" textLength="9" x="45.5" y="143.4966">2</text><text fill="#000000" font-family="sans-serif" font-size="13" lengthAdjust="spacing" textLength="184" x="58.5" y="143.4966">asks for the new profile data</text><polygon fill="#A80036" points="296.5,173.6953,306.5,177.6953,296.5,181.6953,300.5,177.6953" style="stroke:#A80036;stroke-width:1.0;"/><line style="stroke:#A80036;stroke-width:1.0;" x1="28.5" x2="302.5" y1="177.6953" y2="177.6953"/><text fill="#000000" font-family="sans-serif" font-size="13" font-weight="bold" lengthAdjust="spacing" textLength="8" x="35.5" y="172.6294">3</text><text fill="#000000" font-family="sans-serif" font-size="13" lengthAdjust="spacing" textLength="170" x="47.5" y="172.6294">inserts the requested data</text><polygon fill="#A80036" points="34.5,202.8281,24.5,206.8281,34.5,210.8281,30.5,206.8281" style="stroke:#A80036;stroke-width:1.0;"/><line style="stroke:#A80036;stroke-width:1.0;stroke-dasharray:2.0,2.0;" x1="28.5" x2="312.5" y1="206.8281" y2="206.8281"/><text fill="#000000" font-family="sans-serif" font-size="13" font-weight="bold" lengthAdjust="spacing" textLength="9" x="40.5" y="201.7622">4</text><text fill="#000000" font-family="sans-serif" font-size="13" lengthAdjust="spacing" textLength="243" x="53.5" y="201.7622">confirms the success of the operation</text><!--MD5=[c0efa35f98d8b6be5aed40a2e4dcb741]
@startuml
hide footbox
        autonumber

        actor "User" as U
        actor ":System" as SYS
        
        activate U
                U -> SYS : iniciates the profile update
                activate SYS
                SYS - -> U : asks for the new profile data
                deactivate SYS
                U -> SYS : inserts the requested data
                activate SYS
                SYS - -> U : confirms the success of the operation
                deactivate SYS
        deactivate U
@enduml

PlantUML version 1.2021.13beta8(Unknown compile time)
(GPL source distribution)
Java Runtime: Java(TM) SE Runtime Environment
JVM: Java HotSpot(TM) 64-Bit Server VM
Default Encoding: UTF-8
Language: en
Country: US
--></g></svg>