<?xml version="1.0" encoding="UTF-8" standalone="no"?><svg xmlns="http://www.w3.org/2000/svg" xmlns:xlink="http://www.w3.org/1999/xlink" contentScriptType="application/ecmascript" contentStyleType="text/css" height="510px" preserveAspectRatio="none" style="width:1270px;height:510px;background:#FFFFFF;" version="1.1" viewBox="0 0 1270 510" width="1270px" zoomAndPan="magnify"><defs><filter height="300%" id="fxo97nvl5nnmr" width="300%" x="-1" y="-1"><feGaussianBlur result="blurOut" stdDeviation="2.0"/><feColorMatrix in="blurOut" result="blurOut2" type="matrix" values="0 0 0 0 0 0 0 0 0 0 0 0 0 0 0 0 0 0 .4 0"/><feOffset dx="4.0" dy="4.0" in="blurOut2" result="blurOut3"/><feBlend in="SourceGraphic" in2="blurOut3" mode="normal"/></filter></defs><g><!--MD5=[3fd616f346a44cd59a91eb10b19e157c]
class User--><rect codeLine="3" fill="#FEFECE" filter="url(#fxo97nvl5nnmr)" height="172.5234" id="User" style="stroke:#A80036;stroke-width:1.5;" width="125" x="7" y="192.8564"/><ellipse cx="51.75" cy="208.8564" fill="#ADD1B2" rx="11" ry="11" style="stroke:#A80036;stroke-width:1.0;"/><path d="M54.5156,204.7314 Q54.6719,204.5127 54.8594,204.4033 Q55.0469,204.2939 55.2656,204.2939 Q55.6406,204.2939 55.875,204.5596 Q56.1094,204.8096 56.1094,205.4189 L56.1094,206.8721 Q56.1094,207.4814 55.875,207.7471 Q55.6406,208.0127 55.2656,208.0127 Q54.9219,208.0127 54.7188,207.8096 Q54.5156,207.6221 54.4063,207.1064 Q54.3594,206.7471 54.1719,206.5596 Q53.8438,206.1846 53.2344,205.9658 Q52.625,205.7471 52,205.7471 Q51.2344,205.7471 50.5938,206.0752 Q49.9688,206.4033 49.4688,207.1533 Q48.9844,207.9033 48.9844,208.9346 L48.9844,210.0283 Q48.9844,211.2627 49.875,212.0908 Q50.7656,212.9033 52.3594,212.9033 Q53.2969,212.9033 53.9531,212.6533 Q54.3438,212.4971 54.7656,212.0596 Q55.0313,211.7939 55.1719,211.7158 Q55.3281,211.6377 55.5313,211.6377 Q55.8594,211.6377 56.1094,211.9033 Q56.375,212.1533 56.375,212.4971 Q56.375,212.8408 56.0313,213.2471 Q55.5313,213.8252 54.7344,214.1533 Q53.6563,214.6064 52.3594,214.6064 Q50.8438,214.6064 49.6406,213.9814 Q48.6563,213.4814 47.9688,212.4189 Q47.2813,211.3408 47.2813,210.0596 L47.2813,208.9033 Q47.2813,207.5752 47.8906,206.4346 Q48.5156,205.2783 49.6094,204.6689 Q50.7031,204.0439 51.9375,204.0439 Q52.6719,204.0439 53.3125,204.2158 Q53.9688,204.3721 54.5156,204.7314 Z " fill="#000000"/><text fill="#000000" font-family="sans-serif" font-size="12" lengthAdjust="spacing" textLength="27" x="72.25" y="213.7666">User</text><line style="stroke:#A80036;stroke-width:1.5;" x1="8" x2="131" y1="224.8564" y2="224.8564"/><text fill="#000000" font-family="sans-serif" font-size="11" lengthAdjust="spacing" textLength="39" x="13" y="240.2754">String Id</text><text fill="#000000" font-family="sans-serif" font-size="11" lengthAdjust="spacing" textLength="81" x="13" y="254.1113">String Password</text><text fill="#000000" font-family="sans-serif" font-size="11" lengthAdjust="spacing" textLength="58" x="13" y="267.9473">String Name</text><text fill="#000000" font-family="sans-serif" font-size="11" lengthAdjust="spacing" textLength="75" x="13" y="281.7832">String BirthDate</text><text fill="#000000" font-family="sans-serif" font-size="11" lengthAdjust="spacing" textLength="55" x="13" y="295.6191">String Email</text><text fill="#000000" font-family="sans-serif" font-size="11" lengthAdjust="spacing" textLength="56" x="13" y="309.4551">String State</text><text fill="#000000" font-family="sans-serif" font-size="11" lengthAdjust="spacing" textLength="78" x="13" y="323.291">List&lt;String&gt; Tag</text><text fill="#000000" font-family="sans-serif" font-size="11" lengthAdjust="spacing" textLength="98" x="13" y="337.127">String PhoneNumber</text><text fill="#000000" font-family="sans-serif" font-size="11" lengthAdjust="spacing" textLength="113" x="13" y="350.9629">List&lt;String&gt; friendIdList</text><line style="stroke:#A80036;stroke-width:1.5;" x1="8" x2="131" y1="357.3799" y2="357.3799"/><!--MD5=[9bb0bdd047fba1a3c8d48282c35b4537]
class Post--><rect codeLine="14" fill="#FEFECE" filter="url(#fxo97nvl5nnmr)" height="89.5078" id="Post" style="stroke:#A80036;stroke-width:1.5;" width="97" x="442" y="240.3564"/><ellipse cx="475" cy="256.3564" fill="#ADD1B2" rx="11" ry="11" style="stroke:#A80036;stroke-width:1.0;"/><path d="M477.7656,252.2314 Q477.9219,252.0127 478.1094,251.9033 Q478.2969,251.7939 478.5156,251.7939 Q478.8906,251.7939 479.125,252.0596 Q479.3594,252.3096 479.3594,252.9189 L479.3594,254.3721 Q479.3594,254.9814 479.125,255.2471 Q478.8906,255.5127 478.5156,255.5127 Q478.1719,255.5127 477.9688,255.3096 Q477.7656,255.1221 477.6563,254.6064 Q477.6094,254.2471 477.4219,254.0596 Q477.0938,253.6846 476.4844,253.4658 Q475.875,253.2471 475.25,253.2471 Q474.4844,253.2471 473.8438,253.5752 Q473.2188,253.9033 472.7188,254.6533 Q472.2344,255.4033 472.2344,256.4346 L472.2344,257.5283 Q472.2344,258.7627 473.125,259.5908 Q474.0156,260.4033 475.6094,260.4033 Q476.5469,260.4033 477.2031,260.1533 Q477.5938,259.9971 478.0156,259.5596 Q478.2813,259.2939 478.4219,259.2158 Q478.5781,259.1377 478.7813,259.1377 Q479.1094,259.1377 479.3594,259.4033 Q479.625,259.6533 479.625,259.9971 Q479.625,260.3408 479.2813,260.7471 Q478.7813,261.3252 477.9844,261.6533 Q476.9063,262.1064 475.6094,262.1064 Q474.0938,262.1064 472.8906,261.4814 Q471.9063,260.9814 471.2188,259.9189 Q470.5313,258.8408 470.5313,257.5596 L470.5313,256.4033 Q470.5313,255.0752 471.1406,253.9346 Q471.7656,252.7783 472.8594,252.1689 Q473.9531,251.5439 475.1875,251.5439 Q475.9219,251.5439 476.5625,251.7158 Q477.2188,251.8721 477.7656,252.2314 Z " fill="#000000"/><text fill="#000000" font-family="sans-serif" font-size="12" lengthAdjust="spacing" textLength="25" x="493" y="261.2666">Post</text><line style="stroke:#A80036;stroke-width:1.5;" x1="443" x2="538" y1="272.3564" y2="272.3564"/><text fill="#000000" font-family="sans-serif" font-size="11" lengthAdjust="spacing" textLength="85" x="448" y="287.7754">String Description</text><text fill="#000000" font-family="sans-serif" font-size="11" lengthAdjust="spacing" textLength="70" x="448" y="301.6113">String PostTag</text><text fill="#000000" font-family="sans-serif" font-size="11" lengthAdjust="spacing" textLength="81" x="448" y="315.4473">String Comments</text><line style="stroke:#A80036;stroke-width:1.5;" x1="443" x2="538" y1="321.8643" y2="321.8643"/><!--MD5=[3b67181cff55c44d048f4f121abee1a0]
class Friendship--><rect codeLine="20" fill="#FEFECE" filter="url(#fxo97nvl5nnmr)" height="103.3438" id="Friendship" style="stroke:#A80036;stroke-width:1.5;" width="139" x="421" y="62.8564"/><ellipse cx="457.6" cy="78.8564" fill="#ADD1B2" rx="11" ry="11" style="stroke:#A80036;stroke-width:1.0;"/><path d="M460.3656,74.7314 Q460.5219,74.5127 460.7094,74.4033 Q460.8969,74.2939 461.1156,74.2939 Q461.4906,74.2939 461.725,74.5596 Q461.9594,74.8096 461.9594,75.4189 L461.9594,76.8721 Q461.9594,77.4814 461.725,77.7471 Q461.4906,78.0127 461.1156,78.0127 Q460.7719,78.0127 460.5688,77.8096 Q460.3656,77.6221 460.2563,77.1064 Q460.2094,76.7471 460.0219,76.5596 Q459.6938,76.1846 459.0844,75.9658 Q458.475,75.7471 457.85,75.7471 Q457.0844,75.7471 456.4438,76.0752 Q455.8188,76.4033 455.3188,77.1533 Q454.8344,77.9033 454.8344,78.9346 L454.8344,80.0283 Q454.8344,81.2627 455.725,82.0908 Q456.6156,82.9033 458.2094,82.9033 Q459.1469,82.9033 459.8031,82.6533 Q460.1938,82.4971 460.6156,82.0596 Q460.8813,81.7939 461.0219,81.7158 Q461.1781,81.6377 461.3813,81.6377 Q461.7094,81.6377 461.9594,81.9033 Q462.225,82.1533 462.225,82.4971 Q462.225,82.8408 461.8813,83.2471 Q461.3813,83.8252 460.5844,84.1533 Q459.5063,84.6064 458.2094,84.6064 Q456.6938,84.6064 455.4906,83.9814 Q454.5063,83.4814 453.8188,82.4189 Q453.1313,81.3408 453.1313,80.0596 L453.1313,78.9033 Q453.1313,77.5752 453.7406,76.4346 Q454.3656,75.2783 455.4594,74.6689 Q456.5531,74.0439 457.7875,74.0439 Q458.5219,74.0439 459.1625,74.2158 Q459.8188,74.3721 460.3656,74.7314 Z " fill="#000000"/><text fill="#000000" font-family="sans-serif" font-size="12" lengthAdjust="spacing" textLength="59" x="476.4" y="83.7666">Friendship</text><line style="stroke:#A80036;stroke-width:1.5;" x1="422" x2="559" y1="94.8564" y2="94.8564"/><text fill="#000000" font-family="sans-serif" font-size="11" lengthAdjust="spacing" textLength="87" x="427" y="110.2754">String RelationTag</text><text fill="#000000" font-family="sans-serif" font-size="11" lengthAdjust="spacing" textLength="123" x="427" y="124.1113">String ConnectionStrengh</text><text fill="#000000" font-family="sans-serif" font-size="11" lengthAdjust="spacing" textLength="127" x="427" y="137.9473">String RelationshipStrengh</text><text fill="#000000" font-family="sans-serif" font-size="11" lengthAdjust="spacing" textLength="61" x="427" y="151.7832">String userId</text><line style="stroke:#A80036;stroke-width:1.5;" x1="422" x2="559" y1="158.2002" y2="158.2002"/><!--MD5=[0396d7e3d08dbeaa70cc0e1d9da6228b]
class Mission--><rect codeLine="27" fill="#FEFECE" filter="url(#fxo97nvl5nnmr)" height="89.5078" id="Mission" style="stroke:#A80036;stroke-width:1.5;" width="97" x="21" y="67.3564"/><ellipse cx="45.9" cy="83.3564" fill="#ADD1B2" rx="11" ry="11" style="stroke:#A80036;stroke-width:1.0;"/><path d="M48.6656,79.2314 Q48.8219,79.0127 49.0094,78.9033 Q49.1969,78.7939 49.4156,78.7939 Q49.7906,78.7939 50.025,79.0596 Q50.2594,79.3096 50.2594,79.9189 L50.2594,81.3721 Q50.2594,81.9814 50.025,82.2471 Q49.7906,82.5127 49.4156,82.5127 Q49.0719,82.5127 48.8688,82.3096 Q48.6656,82.1221 48.5563,81.6064 Q48.5094,81.2471 48.3219,81.0596 Q47.9938,80.6846 47.3844,80.4658 Q46.775,80.2471 46.15,80.2471 Q45.3844,80.2471 44.7438,80.5752 Q44.1188,80.9033 43.6188,81.6533 Q43.1344,82.4033 43.1344,83.4346 L43.1344,84.5283 Q43.1344,85.7627 44.025,86.5908 Q44.9156,87.4033 46.5094,87.4033 Q47.4469,87.4033 48.1031,87.1533 Q48.4938,86.9971 48.9156,86.5596 Q49.1813,86.2939 49.3219,86.2158 Q49.4781,86.1377 49.6813,86.1377 Q50.0094,86.1377 50.2594,86.4033 Q50.525,86.6533 50.525,86.9971 Q50.525,87.3408 50.1813,87.7471 Q49.6813,88.3252 48.8844,88.6533 Q47.8063,89.1064 46.5094,89.1064 Q44.9938,89.1064 43.7906,88.4814 Q42.8063,87.9814 42.1188,86.9189 Q41.4313,85.8408 41.4313,84.5596 L41.4313,83.4033 Q41.4313,82.0752 42.0406,80.9346 Q42.6656,79.7783 43.7594,79.1689 Q44.8531,78.5439 46.0875,78.5439 Q46.8219,78.5439 47.4625,78.7158 Q48.1188,78.8721 48.6656,79.2314 Z " fill="#000000"/><text fill="#000000" font-family="sans-serif" font-size="12" lengthAdjust="spacing" textLength="43" x="62.1" y="88.2666">Mission</text><line style="stroke:#A80036;stroke-width:1.5;" x1="22" x2="117" y1="99.3564" y2="99.3564"/><text fill="#000000" font-family="sans-serif" font-size="11" lengthAdjust="spacing" textLength="85" x="27" y="114.7754">String Description</text><text fill="#000000" font-family="sans-serif" font-size="11" lengthAdjust="spacing" textLength="73" x="27" y="128.6113">String Difficulty</text><text fill="#000000" font-family="sans-serif" font-size="11" lengthAdjust="spacing" textLength="56" x="27" y="142.4473">String State</text><line style="stroke:#A80036;stroke-width:1.5;" x1="22" x2="117" y1="148.8643" y2="148.8643"/><!--MD5=[71440198c07d2a5e91795288dd7dc641]
class Introduction--><rect codeLine="33" fill="#FEFECE" filter="url(#fxo97nvl5nnmr)" height="117.1797" id="Introduction" style="stroke:#A80036;stroke-width:1.5;" width="98" x="441.5" y="365.8564"/><ellipse cx="457.4" cy="381.8564" fill="#ADD1B2" rx="11" ry="11" style="stroke:#A80036;stroke-width:1.0;"/><path d="M460.1656,377.7314 Q460.3219,377.5127 460.5094,377.4033 Q460.6969,377.2939 460.9156,377.2939 Q461.2906,377.2939 461.525,377.5596 Q461.7594,377.8096 461.7594,378.4189 L461.7594,379.8721 Q461.7594,380.4814 461.525,380.7471 Q461.2906,381.0127 460.9156,381.0127 Q460.5719,381.0127 460.3688,380.8096 Q460.1656,380.6221 460.0563,380.1064 Q460.0094,379.7471 459.8219,379.5596 Q459.4938,379.1846 458.8844,378.9658 Q458.275,378.7471 457.65,378.7471 Q456.8844,378.7471 456.2438,379.0752 Q455.6188,379.4033 455.1188,380.1533 Q454.6344,380.9033 454.6344,381.9346 L454.6344,383.0283 Q454.6344,384.2627 455.525,385.0908 Q456.4156,385.9033 458.0094,385.9033 Q458.9469,385.9033 459.6031,385.6533 Q459.9938,385.4971 460.4156,385.0596 Q460.6813,384.7939 460.8219,384.7158 Q460.9781,384.6377 461.1813,384.6377 Q461.5094,384.6377 461.7594,384.9033 Q462.025,385.1533 462.025,385.4971 Q462.025,385.8408 461.6813,386.2471 Q461.1813,386.8252 460.3844,387.1533 Q459.3063,387.6064 458.0094,387.6064 Q456.4938,387.6064 455.2906,386.9814 Q454.3063,386.4814 453.6188,385.4189 Q452.9313,384.3408 452.9313,383.0596 L452.9313,381.9033 Q452.9313,380.5752 453.5406,379.4346 Q454.1656,378.2783 455.2594,377.6689 Q456.3531,377.0439 457.5875,377.0439 Q458.3219,377.0439 458.9625,377.2158 Q459.6188,377.3721 460.1656,377.7314 Z " fill="#000000"/><text fill="#000000" font-family="sans-serif" font-size="12" lengthAdjust="spacing" textLength="64" x="471.6" y="386.7666">Introduction</text><line style="stroke:#A80036;stroke-width:1.5;" x1="442.5" x2="538.5" y1="397.8564" y2="397.8564"/><text fill="#000000" font-family="sans-serif" font-size="11" lengthAdjust="spacing" textLength="81" x="447.5" y="413.2754">String firstUserId</text><text fill="#000000" font-family="sans-serif" font-size="11" lengthAdjust="spacing" textLength="86" x="447.5" y="427.1113">String midleUserId</text><text fill="#000000" font-family="sans-serif" font-size="11" lengthAdjust="spacing" textLength="79" x="447.5" y="440.9473">String lastUserId</text><text fill="#000000" font-family="sans-serif" font-size="11" lengthAdjust="spacing" textLength="55" x="447.5" y="454.7832">String state</text><text fill="#000000" font-family="sans-serif" font-size="11" lengthAdjust="spacing" textLength="52" x="447.5" y="468.6191">String date</text><line style="stroke:#A80036;stroke-width:1.5;" x1="442.5" x2="538.5" y1="475.0361" y2="475.0361"/><!--MD5=[17a697de5646a3e8ac01998c348cb8a8]
class ConnectionRequest--><rect codeLine="40" fill="#FEFECE" filter="url(#fxo97nvl5nnmr)" height="103.3438" id="ConnectionRequest" style="stroke:#A80036;stroke-width:1.5;" width="142" x="1114" y="151.8564"/><ellipse cx="1129" cy="167.8564" fill="#ADD1B2" rx="11" ry="11" style="stroke:#A80036;stroke-width:1.0;"/><path d="M1131.7656,163.7314 Q1131.9219,163.5127 1132.1094,163.4033 Q1132.2969,163.2939 1132.5156,163.2939 Q1132.8906,163.2939 1133.125,163.5596 Q1133.3594,163.8096 1133.3594,164.4189 L1133.3594,165.8721 Q1133.3594,166.4814 1133.125,166.7471 Q1132.8906,167.0127 1132.5156,167.0127 Q1132.1719,167.0127 1131.9688,166.8096 Q1131.7656,166.6221 1131.6563,166.1064 Q1131.6094,165.7471 1131.4219,165.5596 Q1131.0938,165.1846 1130.4844,164.9658 Q1129.875,164.7471 1129.25,164.7471 Q1128.4844,164.7471 1127.8438,165.0752 Q1127.2188,165.4033 1126.7188,166.1533 Q1126.2344,166.9033 1126.2344,167.9346 L1126.2344,169.0283 Q1126.2344,170.2627 1127.125,171.0908 Q1128.0156,171.9033 1129.6094,171.9033 Q1130.5469,171.9033 1131.2031,171.6533 Q1131.5938,171.4971 1132.0156,171.0596 Q1132.2813,170.7939 1132.4219,170.7158 Q1132.5781,170.6377 1132.7813,170.6377 Q1133.1094,170.6377 1133.3594,170.9033 Q1133.625,171.1533 1133.625,171.4971 Q1133.625,171.8408 1133.2813,172.2471 Q1132.7813,172.8252 1131.9844,173.1533 Q1130.9063,173.6064 1129.6094,173.6064 Q1128.0938,173.6064 1126.8906,172.9814 Q1125.9063,172.4814 1125.2188,171.4189 Q1124.5313,170.3408 1124.5313,169.0596 L1124.5313,167.9033 Q1124.5313,166.5752 1125.1406,165.4346 Q1125.7656,164.2783 1126.8594,163.6689 Q1127.9531,163.0439 1129.1875,163.0439 Q1129.9219,163.0439 1130.5625,163.2158 Q1131.2188,163.3721 1131.7656,163.7314 Z " fill="#000000"/><text fill="#000000" font-family="sans-serif" font-size="12" lengthAdjust="spacing" textLength="110" x="1143" y="172.7666">ConnectionRequest</text><line style="stroke:#A80036;stroke-width:1.5;" x1="1115" x2="1255" y1="183.8564" y2="183.8564"/><text fill="#000000" font-family="sans-serif" font-size="11" lengthAdjust="spacing" textLength="81" x="1120" y="199.2754">String firstUserId</text><text fill="#000000" font-family="sans-serif" font-size="11" lengthAdjust="spacing" textLength="79" x="1120" y="213.1113">String lastUserId</text><text fill="#000000" font-family="sans-serif" font-size="11" lengthAdjust="spacing" textLength="55" x="1120" y="226.9473">String state</text><text fill="#000000" font-family="sans-serif" font-size="11" lengthAdjust="spacing" textLength="52" x="1120" y="240.7832">String date</text><line style="stroke:#A80036;stroke-width:1.5;" x1="1115" x2="1255" y1="247.2002" y2="247.2002"/><ellipse cx="490.5" cy="203.3564" fill="#000000" rx="2" ry="2" style="stroke:none;stroke-width:1.0;"/><ellipse cx="490.5" cy="25.3564" fill="#000000" rx="2" ry="2" style="stroke:none;stroke-width:1.0;"/><!--MD5=[fa476b3e01a0a36a0e6cee14f6dea68f]
link User to Friendship--><path codeLine="49" d="M132.24,211.8564 C141.62,204.1164 151.64,196.9964 162,191.3564 C242.12,147.7464 346.38,128.6864 415.5,120.4564 " fill="none" id="User-to-Friendship" style="stroke:#A80036;stroke-width:1.0;"/><polygon fill="#A80036" points="420.83,119.8364,411.4238,116.917,415.8643,120.4215,412.3598,124.862,420.83,119.8364" style="stroke:#A80036;stroke-width:1.0;"/><polygon fill="#000000" points="268.2584,113.9968,258.7479,113.9775,260.5528,119.5713,268.2584,113.9968" style="stroke:#000000;stroke-width:1.0;"/><text fill="#000000" font-family="sans-serif" font-size="13" lengthAdjust="spacing" textLength="21" x="272.5" y="120.8516">has</text><text fill="#000000" font-family="sans-serif" font-size="13" lengthAdjust="spacing" textLength="7" x="139.899" y="218.5198">1</text><text fill="#000000" font-family="sans-serif" font-size="13" lengthAdjust="spacing" textLength="20" x="392.9875" y="134.6589">0..*</text><!--MD5=[cb18e90110b59a3c01269fade0aa85e1]
link User to Introduction--><path codeLine="50" d="M132.39,300.7564 C142.27,304.0464 152.4,307.3464 162,310.3564 C263.08,342.0264 292.13,338.3464 391,376.3564 C406.21,382.2064 422.26,389.5064 436.9,396.6464 " fill="none" id="User-to-Introduction" style="stroke:#A80036;stroke-width:1.0;"/><polygon fill="#A80036" points="441.39,398.8564,435.0709,391.3021,436.9008,396.6548,431.5482,398.4847,441.39,398.8564" style="stroke:#A80036;stroke-width:1.0;"/><polygon fill="#000000" points="193.2691,303.034,185.5244,297.514,183.759,303.1205,193.2691,303.034" style="stroke:#000000;stroke-width:1.0;"/><text fill="#000000" font-family="sans-serif" font-size="13" lengthAdjust="spacing" textLength="171" x="197.5" y="306.8516">had requested an introduction</text><text fill="#000000" font-family="sans-serif" font-size="13" lengthAdjust="spacing" textLength="7" x="140.0663" y="317.6988">1</text><text fill="#000000" font-family="sans-serif" font-size="13" lengthAdjust="spacing" textLength="7" x="426.6629" y="409.7939">1</text><!--MD5=[cb18e90110b59a3c01269fade0aa85e1]
link User to Introduction--><path codeLine="51" d="M119.57,365.9864 C131.59,380.3864 145.76,393.5064 162,402.3564 C207.84,427.3464 355.83,427.8364 436.26,426.0964 " fill="none" id="User-to-Introduction-1" style="stroke:#A80036;stroke-width:1.0;"/><polygon fill="#A80036" points="441.46,425.9764,432.3709,422.1832,436.4613,426.0907,432.5538,430.1811,441.46,425.9764" style="stroke:#A80036;stroke-width:1.0;"/><polygon fill="#000000" points="171.9123,394.4646,163.5739,389.8905,162.4778,395.6653,171.9123,394.4646" style="stroke:#000000;stroke-width:1.0;"/><text fill="#000000" font-family="sans-serif" font-size="13" lengthAdjust="spacing" textLength="214" x="176" y="398.8516">it's the user who's request is directed</text><text fill="#000000" font-family="sans-serif" font-size="13" lengthAdjust="spacing" textLength="7" x="116.1355" y="386.7584">1</text><text fill="#000000" font-family="sans-serif" font-size="13" lengthAdjust="spacing" textLength="7" x="426.4148" y="440.9578">1</text><!--MD5=[cb18e90110b59a3c01269fade0aa85e1]
link User to Introduction--><path codeLine="52" d="M94.98,366.0764 C108.98,399.0464 130.28,433.2464 162,452.3564 C247.09,503.6064 367.89,472.2164 436.49,446.8764 " fill="none" id="User-to-Introduction-2" style="stroke:#A80036;stroke-width:1.0;"/><polygon fill="#A80036" points="441.33,445.0564,431.4995,444.4548,436.6454,446.8042,434.296,451.9501,441.33,445.0564" style="stroke:#A80036;stroke-width:1.0;"/><polygon fill="#000000" points="227.8657,444.6834,219.7402,439.7409,218.3869,445.4609,227.8657,444.6834" style="stroke:#000000;stroke-width:1.0;"/><text fill="#000000" font-family="sans-serif" font-size="13" lengthAdjust="spacing" textLength="102" x="232" y="448.8516">it's the midle user</text><text fill="#000000" font-family="sans-serif" font-size="13" lengthAdjust="spacing" textLength="22" x="74.0886" y="386.8553">0..1</text><text fill="#000000" font-family="sans-serif" font-size="13" lengthAdjust="spacing" textLength="7" x="426.5941" y="462.7795">1</text><!--MD5=[6146cdb4693e73995b6fbf260c7b9218]
link Introduction to ConnectionRequest--><path codeLine="53" d="M539.65,408.9964 C658.4,371.0964 965.99,272.9264 1108.94,227.3164 " fill="none" id="Introduction-to-ConnectionRequest" style="stroke:#A80036;stroke-width:1.0;"/><polygon fill="#A80036" points="1113.95,225.7164,1104.1607,224.6348,1109.1856,227.2331,1106.5873,232.2579,1113.95,225.7164" style="stroke:#A80036;stroke-width:1.0;"/><text fill="#000000" font-family="sans-serif" font-size="13" lengthAdjust="spacing" textLength="492" x="591" y="232.8516">when state it's approved it will create a connection request betwen first and last users</text><text fill="#000000" font-family="sans-serif" font-size="13" lengthAdjust="spacing" textLength="7" x="547.383" y="421.4232">1</text><text fill="#000000" font-family="sans-serif" font-size="13" lengthAdjust="spacing" textLength="22" x="1083.8732" y="242.2005">0..1</text><!--MD5=[d6d6d34b9d799b1854dff349c33b83f5]
link User to apoint14--><path d="M132.32,262.2564 C142.21,259.7764 152.36,257.3864 162,255.3564 C299.47,226.4864 472.4,205.4064 488.31,203.4964 " fill="none" id="User-apoint14" style="stroke:#A80036;stroke-width:1.0;"/><polygon fill="#000000" points="193.4332,207.7179,184.0303,206.2913,184.9875,212.0907,193.4332,207.7179" style="stroke:#000000;stroke-width:1.0;"/><text fill="#000000" font-family="sans-serif" font-size="13" lengthAdjust="spacing" textLength="171" x="197.5" y="213.8516">had requested an introduction</text><text fill="#000000" font-family="sans-serif" font-size="13" lengthAdjust="spacing" textLength="7" x="139.9883" y="274.7473">1</text><!--MD5=[982e5af183598c57001ddf2dc9a8ce7f]
link apoint14 to ConnectionRequest--><path d="M492.62,203.3564 C517.08,203.3564 934.45,203.3564 1108.61,203.3564 " fill="none" id="apoint14-to-ConnectionRequest" style="stroke:#A80036;stroke-width:1.0;"/><polygon fill="#A80036" points="1113.69,203.3564,1104.69,199.3564,1108.69,203.3564,1104.69,207.3564,1113.69,203.3564" style="stroke:#A80036;stroke-width:1.0;"/><text fill="#000000" font-family="sans-serif" font-size="13" lengthAdjust="spacing" textLength="7" x="1098.9752" y="217.677">1</text><!--MD5=[8618e76cc3ea441d456f0d12449108f4]
link User to apoint20--><path d="M122.56,192.8264 C125.86,186.6364 129.04,180.4364 132,174.3564 C147.89,141.7064 134.39,121.9464 162,98.3564 C270.06,6.0264 469.65,23.3864 488.12,25.2164 " fill="none" id="User-apoint20" style="stroke:#A80036;stroke-width:1.0;"/><text fill="#000000" font-family="sans-serif" font-size="13" lengthAdjust="spacing" textLength="214" x="169.5" y="20.8516">it's the user who's request is directed</text><text fill="#000000" font-family="sans-serif" font-size="13" lengthAdjust="spacing" textLength="7" x="119.9739" y="181.9394">1</text><!--MD5=[0c386178ea64c2e54439b9f3ee96cbc9]
link apoint20 to ConnectionRequest--><path d="M492.7,25.6664 C514.57,31.2464 830.03,111.7664 1084,177.3564 C1091.98,179.4164 1100.32,181.5764 1108.63,183.7364 " fill="none" id="apoint20-to-ConnectionRequest" style="stroke:#A80036;stroke-width:1.0;"/><polygon fill="#A80036" points="1113.8,185.0764,1106.0938,178.9434,1108.9604,183.8201,1104.0837,186.6868,1113.8,185.0764" style="stroke:#A80036;stroke-width:1.0;"/><text fill="#000000" font-family="sans-serif" font-size="13" lengthAdjust="spacing" textLength="7" x="1099.0966" y="197.5118">1</text><!--MD5=[3fa3489c4d48cb0bea42b5bd618d378b]
link Friendship to apoint14--><path d="M490.5,165.9664 C490.5,177.7264 490.5,189.4964 490.5,201.2664 " fill="none" id="Friendship-apoint14" style="stroke:#A80036;stroke-width:1.0;stroke-dasharray:7.0,7.0;"/><!--MD5=[d5b422af5db4abf126f1ba0de3829dd2]
link apoint20 to Friendship--><path d="M490.5,27.3864 C490.5,39.1164 490.5,50.8364 490.5,62.5564 " fill="none" id="apoint20-Friendship" style="stroke:#A80036;stroke-width:1.0;stroke-dasharray:7.0,7.0;"/><!--MD5=[644eee0105779748b1fed2ce185f7a96]
link apoint14 to apoint20--><!--MD5=[77c575690b0287b9077f2f97ff7c450d]
link User to Post--><path codeLine="59" d="M132.32,280.2464 C214.74,281.4264 359.2,283.4864 436.74,284.5964 " fill="none" id="User-to-Post" style="stroke:#A80036;stroke-width:1.0;"/><polygon fill="#A80036" points="441.75,284.6764,432.8081,280.5483,436.7505,284.605,432.6938,288.5475,441.75,284.6764" style="stroke:#A80036;stroke-width:1.0;"/><polygon fill="#000000" points="256.4995,272.6037,247.4973,269.5358,247.4133,275.4131,256.4995,272.6037" style="stroke:#000000;stroke-width:1.0;"/><text fill="#000000" font-family="sans-serif" font-size="13" lengthAdjust="spacing" textLength="45" x="260.5" y="277.8516">writes a</text><text fill="#000000" font-family="sans-serif" font-size="13" lengthAdjust="spacing" textLength="7" x="139.9883" y="294.8173">1</text><text fill="#000000" font-family="sans-serif" font-size="13" lengthAdjust="spacing" textLength="5" x="428.9023" y="299.357">*</text><!--MD5=[03f9f9ce33b6060ea2c31cf8d810f239]
@startuml
left to right direction

class User {
        String Id
        String Password
        String Name
        String BirthDate
        String Email
        String State
        List<String> Tag
        String PhoneNumber
        List<String> friendIdList
}
class Post {
        String Description
        String PostTag
        String Comments
}

class Friendship {
        String RelationTag
        String ConnectionStrengh
        String RelationshipStrengh
        String userId
}

class Mission {
        String Description
        String Difficulty
        String State
}

class Introduction{
        String firstUserId
        String midleUserId
        String lastUserId
        String state
        String date
}
class ConnectionRequest{
        String firstUserId
        String lastUserId
        String state
        String date
}



User "1" - -> "0..*" Friendship : has >
User "1" - -> "1" Introduction : had requested an introduction >
User "1" - -> "1" Introduction : it's the user who's request is directed >
User "0..1" - -> "1" Introduction : it's the midle user >
Introduction "1" - -> "0..1" ConnectionRequest : when state it's approved it will create a connection request betwen first and last users
User "1" - -> "1" ConnectionRequest : had requested an introduction >
(User, ConnectionRequest) .. Friendship
User "1" - -> "1" ConnectionRequest : it's the user who's request is directed >
(User, ConnectionRequest) .. Friendship

User "1" - -> "*" Post : writes a >
@enduml

PlantUML version 1.2021.7(Sun May 23 13:40:07 WEST 2021)
(GPL source distribution)
Java Runtime: Java(TM) SE Runtime Environment
JVM: Java HotSpot(TM) 64-Bit Server VM
Default Encoding: Cp1252
Language: pt
Country: PT
--></g></svg>