<?xml version="1.0" encoding="UTF-8" standalone="no"?><svg xmlns="http://www.w3.org/2000/svg" xmlns:xlink="http://www.w3.org/1999/xlink" contentScriptType="application/ecmascript" contentStyleType="text/css" height="571px" preserveAspectRatio="none" style="width:2363px;height:571px;background:#FFFFFF;" version="1.1" viewBox="0 0 2363 571" width="2363px" zoomAndPan="magnify"><defs><filter height="300%" id="fnvrwsuq8o19" width="300%" x="-1" y="-1"><feGaussianBlur result="blurOut" stdDeviation="2.0"/><feColorMatrix in="blurOut" result="blurOut2" type="matrix" values="0 0 0 0 0 0 0 0 0 0 0 0 0 0 0 0 0 0 .4 0"/><feOffset dx="4.0" dy="4.0" in="blurOut2" result="blurOut3"/><feBlend in="SourceGraphic" in2="blurOut3" mode="normal"/></filter></defs><g><!--MD5=[92e59279d1d1a71690a054ab18a884d1]
cluster Aggregate User--><polygon fill="#FFFFFF" filter="url(#fnvrwsuq8o19)" points="16,242,132,242,139,265.6094,992,265.6094,992,454,16,454,16,242" style="stroke:#000000;stroke-width:1.5;"/><line style="stroke:#000000;stroke-width:1.5;" x1="16" x2="139" y1="265.6094" y2="265.6094"/><text fill="#000000" font-family="sans-serif" font-size="14" font-weight="bold" lengthAdjust="spacing" textLength="110" x="20" y="258.5332">Aggregate User</text><!--MD5=[65852a548d1be070c37a3b9aa2526a57]
cluster Aggregate Introduction--><polygon fill="#FFFFFF" filter="url(#fnvrwsuq8o19)" points="1016,352,1185,352,1192,375.6094,1226,375.6094,1226,564,1016,564,1016,352" style="stroke:#000000;stroke-width:1.5;"/><line style="stroke:#000000;stroke-width:1.5;" x1="1016" x2="1192" y1="375.6094" y2="375.6094"/><text fill="#000000" font-family="sans-serif" font-size="14" font-weight="bold" lengthAdjust="spacing" textLength="163" x="1020" y="368.5332">Aggregate Introduction</text><!--MD5=[bc61d5baea69a16ed4cfbc96aa795ac2]
cluster Aggregate Post--><polygon fill="#FFFFFF" filter="url(#fnvrwsuq8o19)" points="504,6,618,6,625,29.6094,831,29.6094,831,218,504,218,504,6" style="stroke:#000000;stroke-width:1.5;"/><line style="stroke:#000000;stroke-width:1.5;" x1="504" x2="625" y1="29.6094" y2="29.6094"/><text fill="#000000" font-family="sans-serif" font-size="14" font-weight="bold" lengthAdjust="spacing" textLength="108" x="508" y="22.5332">Aggregate Post</text><!--MD5=[21e1ab46f5420d9c67c2720d993c661e]
cluster Aggregate Friendship--><polygon fill="#FFFFFF" filter="url(#fnvrwsuq8o19)" points="1250,352,1409,352,1416,375.6094,1788,375.6094,1788,564,1250,564,1250,352" style="stroke:#000000;stroke-width:1.5;"/><line style="stroke:#000000;stroke-width:1.5;" x1="1250" x2="1416" y1="375.6094" y2="375.6094"/><text fill="#000000" font-family="sans-serif" font-size="14" font-weight="bold" lengthAdjust="spacing" textLength="153" x="1254" y="368.5332">Aggregate Friendship</text><!--MD5=[6070a320a382be961a0e354dac9599ba]
cluster Aggregate Mission--><polygon fill="#FFFFFF" filter="url(#fnvrwsuq8o19)" points="1812,352,1950,352,1957,375.6094,2346,375.6094,2346,564,1812,564,1812,352" style="stroke:#000000;stroke-width:1.5;"/><line style="stroke:#000000;stroke-width:1.5;" x1="1812" x2="1957" y1="375.6094" y2="375.6094"/><text fill="#000000" font-family="sans-serif" font-size="14" font-weight="bold" lengthAdjust="spacing" textLength="132" x="1816" y="368.5332">Aggregate Mission</text><rect fill="#FEFECE" filter="url(#fnvrwsuq8o19)" height="50.1875" style="stroke:#A80036;stroke-width:1.5;" width="63" x="790.5" y="278"/><text fill="#000000" font-family="sans-serif" font-size="12" lengthAdjust="spacing" textLength="49" x="797.5" y="292.457">&lt;&lt;root&gt;&gt;</text><text fill="#000000" font-family="sans-serif" font-size="12" lengthAdjust="spacing" textLength="27" x="808.5" y="307.5508">User</text><line style="stroke:#A80036;stroke-width:1.5;" x1="791.5" x2="852.5" y1="312.1875" y2="312.1875"/><rect fill="#FEFECE" filter="url(#fnvrwsuq8o19)" height="50.1875" style="stroke:#A80036;stroke-width:1.5;" width="71" x="32.5" y="388"/><text fill="#000000" font-family="sans-serif" font-size="12" lengthAdjust="spacing" textLength="57" x="39.5" y="402.457">&lt;&lt;value&gt;&gt;</text><text fill="#000000" font-family="sans-serif" font-size="12" lengthAdjust="spacing" textLength="10" x="63" y="417.5508">Id</text><line style="stroke:#A80036;stroke-width:1.5;" x1="33.5" x2="102.5" y1="422.1875" y2="422.1875"/><rect fill="#FEFECE" filter="url(#fnvrwsuq8o19)" height="50.1875" style="stroke:#A80036;stroke-width:1.5;" width="71" x="138.5" y="388"/><text fill="#000000" font-family="sans-serif" font-size="12" lengthAdjust="spacing" textLength="57" x="145.5" y="402.457">&lt;&lt;value&gt;&gt;</text><text fill="#000000" font-family="sans-serif" font-size="12" lengthAdjust="spacing" textLength="34" x="157" y="417.5508">Name</text><line style="stroke:#A80036;stroke-width:1.5;" x1="139.5" x2="208.5" y1="422.1875" y2="422.1875"/><rect fill="#FEFECE" filter="url(#fnvrwsuq8o19)" height="50.1875" style="stroke:#A80036;stroke-width:1.5;" width="71" x="244.5" y="388"/><text fill="#000000" font-family="sans-serif" font-size="12" lengthAdjust="spacing" textLength="57" x="251.5" y="402.457">&lt;&lt;value&gt;&gt;</text><text fill="#000000" font-family="sans-serif" font-size="12" lengthAdjust="spacing" textLength="56" x="252" y="417.5508">Password</text><line style="stroke:#A80036;stroke-width:1.5;" x1="245.5" x2="314.5" y1="422.1875" y2="422.1875"/><rect fill="#FEFECE" filter="url(#fnvrwsuq8o19)" height="50.1875" style="stroke:#A80036;stroke-width:1.5;" width="71" x="350.5" y="388"/><text fill="#000000" font-family="sans-serif" font-size="12" lengthAdjust="spacing" textLength="57" x="357.5" y="402.457">&lt;&lt;value&gt;&gt;</text><text fill="#000000" font-family="sans-serif" font-size="12" lengthAdjust="spacing" textLength="51" x="360.5" y="417.5508">BirthDate</text><line style="stroke:#A80036;stroke-width:1.5;" x1="351.5" x2="420.5" y1="422.1875" y2="422.1875"/><rect fill="#FEFECE" filter="url(#fnvrwsuq8o19)" height="50.1875" style="stroke:#A80036;stroke-width:1.5;" width="71" x="456.5" y="388"/><text fill="#000000" font-family="sans-serif" font-size="12" lengthAdjust="spacing" textLength="57" x="463.5" y="402.457">&lt;&lt;value&gt;&gt;</text><text fill="#000000" font-family="sans-serif" font-size="12" lengthAdjust="spacing" textLength="32" x="476" y="417.5508">Email</text><line style="stroke:#A80036;stroke-width:1.5;" x1="457.5" x2="526.5" y1="422.1875" y2="422.1875"/><rect fill="#FEFECE" filter="url(#fnvrwsuq8o19)" height="50.1875" style="stroke:#A80036;stroke-width:1.5;" width="71" x="562.5" y="388"/><text fill="#000000" font-family="sans-serif" font-size="12" lengthAdjust="spacing" textLength="57" x="569.5" y="402.457">&lt;&lt;value&gt;&gt;</text><text fill="#000000" font-family="sans-serif" font-size="12" lengthAdjust="spacing" textLength="28" x="584" y="417.5508">State</text><line style="stroke:#A80036;stroke-width:1.5;" x1="563.5" x2="632.5" y1="422.1875" y2="422.1875"/><rect fill="#FEFECE" filter="url(#fnvrwsuq8o19)" height="50.1875" style="stroke:#A80036;stroke-width:1.5;" width="71" x="668.5" y="388"/><text fill="#000000" font-family="sans-serif" font-size="12" lengthAdjust="spacing" textLength="57" x="675.5" y="402.457">&lt;&lt;value&gt;&gt;</text><text fill="#000000" font-family="sans-serif" font-size="12" lengthAdjust="spacing" textLength="21" x="693.5" y="417.5508">Tag</text><line style="stroke:#A80036;stroke-width:1.5;" x1="669.5" x2="738.5" y1="422.1875" y2="422.1875"/><rect fill="#FEFECE" filter="url(#fnvrwsuq8o19)" height="50.1875" style="stroke:#A80036;stroke-width:1.5;" width="95" x="774.5" y="388"/><text fill="#000000" font-family="sans-serif" font-size="12" lengthAdjust="spacing" textLength="57" x="793.5" y="402.457">&lt;&lt;value&gt;&gt;</text><text fill="#000000" font-family="sans-serif" font-size="12" lengthAdjust="spacing" textLength="81" x="781.5" y="417.5508">PhoneNumber</text><line style="stroke:#A80036;stroke-width:1.5;" x1="775.5" x2="868.5" y1="422.1875" y2="422.1875"/><rect fill="#FEFECE" filter="url(#fnvrwsuq8o19)" height="50.1875" style="stroke:#A80036;stroke-width:1.5;" width="71" x="904.5" y="388"/><text fill="#000000" font-family="sans-serif" font-size="12" lengthAdjust="spacing" textLength="57" x="911.5" y="402.457">&lt;&lt;value&gt;&gt;</text><text fill="#000000" font-family="sans-serif" font-size="12" lengthAdjust="spacing" textLength="35" x="922.5" y="417.5508">Friend</text><line style="stroke:#A80036;stroke-width:1.5;" x1="905.5" x2="974.5" y1="422.1875" y2="422.1875"/><rect fill="#FEFECE" filter="url(#fnvrwsuq8o19)" height="50.1875" style="stroke:#A80036;stroke-width:1.5;" width="78" x="1032" y="388"/><text fill="#000000" font-family="sans-serif" font-size="12" lengthAdjust="spacing" textLength="49" x="1046.5" y="402.457">&lt;&lt;root&gt;&gt;</text><text fill="#000000" font-family="sans-serif" font-size="12" lengthAdjust="spacing" textLength="64" x="1039" y="417.5508">Introduction</text><line style="stroke:#A80036;stroke-width:1.5;" x1="1033" x2="1109" y1="422.1875" y2="422.1875"/><rect fill="#FEFECE" filter="url(#fnvrwsuq8o19)" height="50.1875" style="stroke:#A80036;stroke-width:1.5;" width="71" x="1032.5" y="498"/><text fill="#000000" font-family="sans-serif" font-size="12" lengthAdjust="spacing" textLength="57" x="1039.5" y="512.457">&lt;&lt;value&gt;&gt;</text><text fill="#000000" font-family="sans-serif" font-size="12" lengthAdjust="spacing" textLength="26" x="1055" y="527.5508">Date</text><line style="stroke:#A80036;stroke-width:1.5;" x1="1033.5" x2="1102.5" y1="532.1875" y2="532.1875"/><rect fill="#FEFECE" filter="url(#fnvrwsuq8o19)" height="50.1875" style="stroke:#A80036;stroke-width:1.5;" width="71" x="1138.5" y="498"/><text fill="#000000" font-family="sans-serif" font-size="12" lengthAdjust="spacing" textLength="57" x="1145.5" y="512.457">&lt;&lt;value&gt;&gt;</text><text fill="#000000" font-family="sans-serif" font-size="12" lengthAdjust="spacing" textLength="28" x="1160" y="527.5508">State</text><line style="stroke:#A80036;stroke-width:1.5;" x1="1139.5" x2="1208.5" y1="532.1875" y2="532.1875"/><rect fill="#FEFECE" filter="url(#fnvrwsuq8o19)" height="50.1875" style="stroke:#A80036;stroke-width:1.5;" width="63" x="690.5" y="42"/><text fill="#000000" font-family="sans-serif" font-size="12" lengthAdjust="spacing" textLength="49" x="697.5" y="56.457">&lt;&lt;root&gt;&gt;</text><text fill="#000000" font-family="sans-serif" font-size="12" lengthAdjust="spacing" textLength="25" x="709.5" y="71.5508">Post</text><line style="stroke:#A80036;stroke-width:1.5;" x1="691.5" x2="752.5" y1="76.1875" y2="76.1875"/><rect fill="#FEFECE" filter="url(#fnvrwsuq8o19)" height="50.1875" style="stroke:#A80036;stroke-width:1.5;" width="77" x="520.5" y="152"/><text fill="#000000" font-family="sans-serif" font-size="12" lengthAdjust="spacing" textLength="57" x="530.5" y="166.457">&lt;&lt;value&gt;&gt;</text><text fill="#000000" font-family="sans-serif" font-size="12" lengthAdjust="spacing" textLength="63" x="527.5" y="181.5508">Description</text><line style="stroke:#A80036;stroke-width:1.5;" x1="521.5" x2="596.5" y1="186.1875" y2="186.1875"/><rect fill="#FEFECE" filter="url(#fnvrwsuq8o19)" height="50.1875" style="stroke:#A80036;stroke-width:1.5;" width="71" x="632.5" y="152"/><text fill="#000000" font-family="sans-serif" font-size="12" lengthAdjust="spacing" textLength="57" x="639.5" y="166.457">&lt;&lt;value&gt;&gt;</text><text fill="#000000" font-family="sans-serif" font-size="12" lengthAdjust="spacing" textLength="46" x="645" y="181.5508">PostTag</text><line style="stroke:#A80036;stroke-width:1.5;" x1="633.5" x2="702.5" y1="186.1875" y2="186.1875"/><rect fill="#FEFECE" filter="url(#fnvrwsuq8o19)" height="50.1875" style="stroke:#A80036;stroke-width:1.5;" width="76" x="739" y="152"/><text fill="#000000" font-family="sans-serif" font-size="12" lengthAdjust="spacing" textLength="57" x="748.5" y="166.457">&lt;&lt;value&gt;&gt;</text><text fill="#000000" font-family="sans-serif" font-size="12" lengthAdjust="spacing" textLength="62" x="746" y="181.5508">Comments</text><line style="stroke:#A80036;stroke-width:1.5;" x1="740" x2="814" y1="186.1875" y2="186.1875"/><rect fill="#FEFECE" filter="url(#fnvrwsuq8o19)" height="50.1875" style="stroke:#A80036;stroke-width:1.5;" width="73" x="1406.5" y="388"/><text fill="#000000" font-family="sans-serif" font-size="12" lengthAdjust="spacing" textLength="49" x="1418.5" y="402.457">&lt;&lt;root&gt;&gt;</text><text fill="#000000" font-family="sans-serif" font-size="12" lengthAdjust="spacing" textLength="59" x="1413.5" y="417.5508">Friendship</text><line style="stroke:#A80036;stroke-width:1.5;" x1="1407.5" x2="1478.5" y1="422.1875" y2="422.1875"/><rect fill="#FEFECE" filter="url(#fnvrwsuq8o19)" height="50.1875" style="stroke:#A80036;stroke-width:1.5;" width="81" x="1266.5" y="498"/><text fill="#000000" font-family="sans-serif" font-size="12" lengthAdjust="spacing" textLength="57" x="1278.5" y="512.457">&lt;&lt;value&gt;&gt;</text><text fill="#000000" font-family="sans-serif" font-size="12" lengthAdjust="spacing" textLength="67" x="1273.5" y="527.5508">RelationTag</text><line style="stroke:#A80036;stroke-width:1.5;" x1="1267.5" x2="1346.5" y1="532.1875" y2="532.1875"/><rect fill="#FEFECE" filter="url(#fnvrwsuq8o19)" height="50.1875" style="stroke:#A80036;stroke-width:1.5;" width="120" x="1383" y="498"/><text fill="#000000" font-family="sans-serif" font-size="12" lengthAdjust="spacing" textLength="57" x="1414.5" y="512.457">&lt;&lt;value&gt;&gt;</text><text fill="#000000" font-family="sans-serif" font-size="12" lengthAdjust="spacing" textLength="106" x="1390" y="527.5508">ConnectionStrengh</text><line style="stroke:#A80036;stroke-width:1.5;" x1="1384" x2="1502" y1="532.1875" y2="532.1875"/><rect fill="#FEFECE" filter="url(#fnvrwsuq8o19)" height="50.1875" style="stroke:#A80036;stroke-width:1.5;" width="127" x="1538.5" y="498"/><text fill="#000000" font-family="sans-serif" font-size="12" lengthAdjust="spacing" textLength="57" x="1573.5" y="512.457">&lt;&lt;value&gt;&gt;</text><text fill="#000000" font-family="sans-serif" font-size="12" lengthAdjust="spacing" textLength="113" x="1545.5" y="527.5508">RelationshipStrengh</text><line style="stroke:#A80036;stroke-width:1.5;" x1="1539.5" x2="1664.5" y1="532.1875" y2="532.1875"/><rect fill="#FEFECE" filter="url(#fnvrwsuq8o19)" height="50.1875" style="stroke:#A80036;stroke-width:1.5;" width="71" x="1700.5" y="498"/><text fill="#000000" font-family="sans-serif" font-size="12" lengthAdjust="spacing" textLength="57" x="1707.5" y="512.457">&lt;&lt;value&gt;&gt;</text><text fill="#000000" font-family="sans-serif" font-size="12" lengthAdjust="spacing" textLength="28" x="1722" y="527.5508">State</text><line style="stroke:#A80036;stroke-width:1.5;" x1="1701.5" x2="1770.5" y1="532.1875" y2="532.1875"/><rect fill="#FEFECE" filter="url(#fnvrwsuq8o19)" height="50.1875" style="stroke:#A80036;stroke-width:1.5;" width="63" x="1944.5" y="388"/><text fill="#000000" font-family="sans-serif" font-size="12" lengthAdjust="spacing" textLength="49" x="1951.5" y="402.457">&lt;&lt;root&gt;&gt;</text><text fill="#000000" font-family="sans-serif" font-size="12" lengthAdjust="spacing" textLength="43" x="1954.5" y="417.5508">Mission</text><line style="stroke:#A80036;stroke-width:1.5;" x1="1945.5" x2="2006.5" y1="422.1875" y2="422.1875"/><rect fill="#FEFECE" filter="url(#fnvrwsuq8o19)" height="50.1875" style="stroke:#A80036;stroke-width:1.5;" width="77" x="1828.5" y="498"/><text fill="#000000" font-family="sans-serif" font-size="12" lengthAdjust="spacing" textLength="57" x="1838.5" y="512.457">&lt;&lt;value&gt;&gt;</text><text fill="#000000" font-family="sans-serif" font-size="12" lengthAdjust="spacing" textLength="63" x="1835.5" y="527.5508">Description</text><line style="stroke:#A80036;stroke-width:1.5;" x1="1829.5" x2="1904.5" y1="532.1875" y2="532.1875"/><rect fill="#FEFECE" filter="url(#fnvrwsuq8o19)" height="50.1875" style="stroke:#A80036;stroke-width:1.5;" width="71" x="1940.5" y="498"/><text fill="#000000" font-family="sans-serif" font-size="12" lengthAdjust="spacing" textLength="57" x="1947.5" y="512.457">&lt;&lt;value&gt;&gt;</text><text fill="#000000" font-family="sans-serif" font-size="12" lengthAdjust="spacing" textLength="45" x="1953.5" y="527.5508">Difficulty</text><line style="stroke:#A80036;stroke-width:1.5;" x1="1941.5" x2="2010.5" y1="532.1875" y2="532.1875"/><rect fill="#FEFECE" filter="url(#fnvrwsuq8o19)" height="50.1875" style="stroke:#A80036;stroke-width:1.5;" width="71" x="2046.5" y="498"/><text fill="#000000" font-family="sans-serif" font-size="12" lengthAdjust="spacing" textLength="57" x="2053.5" y="512.457">&lt;&lt;value&gt;&gt;</text><text fill="#000000" font-family="sans-serif" font-size="12" lengthAdjust="spacing" textLength="28" x="2068" y="527.5508">State</text><line style="stroke:#A80036;stroke-width:1.5;" x1="2047.5" x2="2116.5" y1="532.1875" y2="532.1875"/><rect fill="#FEFECE" filter="url(#fnvrwsuq8o19)" height="50.1875" style="stroke:#A80036;stroke-width:1.5;" width="71" x="2152.5" y="498"/><text fill="#000000" font-family="sans-serif" font-size="12" lengthAdjust="spacing" textLength="57" x="2159.5" y="512.457">&lt;&lt;value&gt;&gt;</text><text fill="#000000" font-family="sans-serif" font-size="12" lengthAdjust="spacing" textLength="55" x="2160.5" y="527.5508">InitialDate</text><line style="stroke:#A80036;stroke-width:1.5;" x1="2153.5" x2="2222.5" y1="532.1875" y2="532.1875"/><rect fill="#FEFECE" filter="url(#fnvrwsuq8o19)" height="50.1875" style="stroke:#A80036;stroke-width:1.5;" width="71" x="2258.5" y="498"/><text fill="#000000" font-family="sans-serif" font-size="12" lengthAdjust="spacing" textLength="57" x="2265.5" y="512.457">&lt;&lt;value&gt;&gt;</text><text fill="#000000" font-family="sans-serif" font-size="12" lengthAdjust="spacing" textLength="53" x="2267.5" y="527.5508">FinalDate</text><line style="stroke:#A80036;stroke-width:1.5;" x1="2259.5" x2="2328.5" y1="532.1875" y2="532.1875"/><!--MD5=[993a1ed30139d6bc9fd462e29443e622]
link User to User--><path codeLine="51" d="M798.67,277.74 C798.67,260.21 798.67,240 798.67,240 C798.67,240 782.5,240 782.5,240 C782.5,240 782.5,358 782.5,358 C782.5,358 811.5,358 811.5,358 C811.5,358 811.5,333.25 811.5,333.25 " fill="none" id="User-to-User" style="stroke:#A80036;stroke-width:1.0;"/><polygon fill="#A80036" points="811.5,328.25,807.5,337.25,811.5,333.25,815.5,337.25,811.5,328.25" style="stroke:#A80036;stroke-width:1.0;"/><text fill="#000000" font-family="sans-serif" font-size="13" lengthAdjust="spacing" textLength="7" x="785.1302" y="267.148">1</text><text fill="#000000" font-family="sans-serif" font-size="13" lengthAdjust="spacing" textLength="7" x="801.0875" y="349.8698">1</text><!--MD5=[aed393ddb7f866d5beec8b91a43abb9e]
link User to Id--><path codeLine="52" d="M790.08,290 C646.57,290 68,290 68,290 C68,290 68,382.81 68,382.81 " fill="none" id="User-to-Id" style="stroke:#A80036;stroke-width:1.0;"/><polygon fill="#A80036" points="68,387.81,72,378.81,68,382.81,64,378.81,68,387.81" style="stroke:#A80036;stroke-width:1.0;"/><text fill="#000000" font-family="sans-serif" font-size="13" lengthAdjust="spacing" textLength="7" x="775.3319" y="282.9193">1</text><text fill="#000000" font-family="sans-serif" font-size="13" lengthAdjust="spacing" textLength="7" x="60.1469" y="377.235">1</text><!--MD5=[9f8708d1936c290207a2b7e986f9e670]
link User to Pass--><path codeLine="53" d="M790.12,301 C673.94,301 280,301 280,301 C280,301 280,382.87 280,382.87 " fill="none" id="User-to-Pass" style="stroke:#A80036;stroke-width:1.0;"/><polygon fill="#A80036" points="280,387.87,284.0257,378.8815,280.0143,382.87,276.0257,378.8586,280,387.87" style="stroke:#A80036;stroke-width:1.0;"/><text fill="#000000" font-family="sans-serif" font-size="13" lengthAdjust="spacing" textLength="7" x="775.3806" y="315.8256">1</text><text fill="#000000" font-family="sans-serif" font-size="13" lengthAdjust="spacing" textLength="7" x="272.1469" y="377.3097">1</text><!--MD5=[fa476b3e01a0a36a0e6cee14f6dea68f]
link User to Friendship--><path codeLine="54" d="M853.65,297 C980.2,297 1443,297 1443,297 C1443,297 1443,382.83 1443,382.83 " fill="none" id="User-to-Friendship" style="stroke:#A80036;stroke-width:1.0;"/><polygon fill="#A80036" points="1443,387.83,1447,378.83,1443,382.83,1439,378.83,1443,387.83" style="stroke:#A80036;stroke-width:1.0;"/><text fill="#000000" font-family="sans-serif" font-size="13" lengthAdjust="spacing" textLength="7" x="861.3391" y="291.4506">2</text><text fill="#000000" font-family="sans-serif" font-size="13" lengthAdjust="spacing" textLength="7" x="1435.1469" y="377.2599">1</text><!--MD5=[2815e13354383e1c95c8a74a1b4bf02f]
link User to Mission--><path codeLine="55" d="M853.78,291 C1038.46,291 1965.5,291 1965.5,291 C1965.5,291 1965.5,382.72 1965.5,382.72 " fill="none" id="User-to-Mission" style="stroke:#A80036;stroke-width:1.0;"/><polygon fill="#A80036" points="1965.5,387.72,1969.5,378.72,1965.5,382.72,1961.5,378.72,1965.5,387.72" style="stroke:#A80036;stroke-width:1.0;"/><text fill="#000000" font-family="sans-serif" font-size="13" lengthAdjust="spacing" textLength="7" x="861.2735" y="278.2872">1</text><text fill="#000000" font-family="sans-serif" font-size="13" lengthAdjust="spacing" textLength="20" x="1940.5031" y="377.1231">0..*</text><!--MD5=[d19dffd8ea6be673da17b61ce866ed58]
reverse link User to Mission--><path codeLine="68" d="M858.75,285 C858.75,285 1986.5,285 1986.5,285 C1986.5,285 1986.5,350.41 1986.5,387.71 " fill="none" id="User-backto-Mission" style="stroke:#A80036;stroke-width:1.0;"/><polygon fill="#A80036" points="853.75,285,862.75,289,858.75,285,862.75,281,853.75,285" style="stroke:#A80036;stroke-width:1.0;"/><text fill="#000000" font-family="sans-serif" font-size="13" lengthAdjust="spacing" textLength="7" x="861.4609" y="276.8256">1</text><text fill="#000000" font-family="sans-serif" font-size="13" lengthAdjust="spacing" textLength="15" x="1972.2313" y="377.1107">0..</text><!--MD5=[0961cdc72e54ce51e88363cb25ead5a5]
link User to ExternalUser--><path codeLine="57" d="M853.62,322 C888.57,322 940,322 940,322 C940,322 940,382.65 940,382.65 " fill="none" id="User-to-ExternalUser" style="stroke:#A80036;stroke-width:1.0;"/><polygon fill="#A80036" points="940,387.65,944,378.65,940,382.65,936,378.65,940,387.65" style="stroke:#A80036;stroke-width:1.0;"/><text fill="#000000" font-family="sans-serif" font-size="13" lengthAdjust="spacing" textLength="7" x="861.3025" y="341.4193">1</text><text fill="#000000" font-family="sans-serif" font-size="13" lengthAdjust="spacing" textLength="5" x="934.3906" y="377.036">*</text><!--MD5=[77c575690b0287b9077f2f97ff7c450d]
link User to Post--><path codeLine="58" d="M790.29,284 C758.84,284 715.33,284 715.33,284 C715.33,284 715.33,97.32 715.33,97.32 " fill="none" id="User-to-Post" style="stroke:#A80036;stroke-width:1.0;"/><polygon fill="#A80036" points="715.33,92.32,711.33,101.32,715.33,97.32,719.33,101.32,715.33,92.32" style="stroke:#A80036;stroke-width:1.0;"/><text fill="#000000" font-family="sans-serif" font-size="13" lengthAdjust="spacing" textLength="7" x="775.5878" y="275.6068">1</text><text fill="#000000" font-family="sans-serif" font-size="13" lengthAdjust="spacing" textLength="5" x="708.2094" y="113.5393">*</text><!--MD5=[0a0c22abab0b6a2b3d71e15ac743b391]
link User to Name--><path codeLine="59" d="M790.31,295 C660.21,295 174,295 174,295 C174,295 174,382.98 174,382.98 " fill="none" id="User-to-Name" style="stroke:#A80036;stroke-width:1.0;"/><polygon fill="#A80036" points="174,387.98,178,378.98,174,382.98,170,378.98,174,387.98" style="stroke:#A80036;stroke-width:1.0;"/><text fill="#000000" font-family="sans-serif" font-size="13" lengthAdjust="spacing" textLength="7" x="775.6122" y="308.5131">1</text><text fill="#000000" font-family="sans-serif" font-size="13" lengthAdjust="spacing" textLength="7" x="166.1031" y="377.0348">1</text><!--MD5=[85a9a7abe549913901d608a8901c28fd]
link User to BirthDate--><path codeLine="60" d="M790.29,306 C689.96,306 386,306 386,306 C386,306 386,382.91 386,382.91 " fill="none" id="User-to-BirthDate" style="stroke:#A80036;stroke-width:1.0;"/><polygon fill="#A80036" points="386,387.91,390,378.91,386,382.91,382,378.91,386,387.91" style="stroke:#A80036;stroke-width:1.0;"/><text fill="#000000" font-family="sans-serif" font-size="13" lengthAdjust="spacing" textLength="7" x="775.5878" y="302.4193">1</text><text fill="#000000" font-family="sans-serif" font-size="13" lengthAdjust="spacing" textLength="7" x="378.1031" y="376.9468">1</text><!--MD5=[dbc364445409b51c9b407d19a07b4adf]
link User to Email--><path codeLine="61" d="M790.39,312 C713.7,312 524,312 524,312 C524,312 524,382.77 524,382.77 " fill="none" id="User-to-Email" style="stroke:#A80036;stroke-width:1.0;"/><polygon fill="#A80036" points="524,387.77,528,378.77,524,382.77,520,378.77,524,387.77" style="stroke:#A80036;stroke-width:1.0;"/><text fill="#000000" font-family="sans-serif" font-size="13" lengthAdjust="spacing" textLength="7" x="775.7097" y="329.2318">1</text><text fill="#000000" font-family="sans-serif" font-size="13" lengthAdjust="spacing" textLength="7" x="523.9469" y="377.1853">1</text><!--MD5=[3afed10a2972f313422f6641b3f04d1b]
link User to State--><path codeLine="62" d="M790.11,317 C732.04,317 615,317 615,317 C615,317 615,382.78 615,382.78 " fill="none" id="User-to-State" style="stroke:#A80036;stroke-width:1.0;"/><polygon fill="#A80036" points="615,387.78,619,378.78,615,382.78,611,378.78,615,387.78" style="stroke:#A80036;stroke-width:1.0;"/><text fill="#000000" font-family="sans-serif" font-size="13" lengthAdjust="spacing" textLength="7" x="775.3684" y="335.3256">1</text><text fill="#000000" font-family="sans-serif" font-size="13" lengthAdjust="spacing" textLength="7" x="611.2906" y="377.1977">1</text><!--MD5=[2ee27a3c226c8efddfe3344676e0d9e8]
link User to Tag--><path codeLine="63" d="M790.42,323 C762.83,323 727.17,323 727.17,323 C727.17,323 727.17,382.93 727.17,382.93 " fill="none" id="User-to-Tag" style="stroke:#A80036;stroke-width:1.0;"/><polygon fill="#A80036" points="727.17,387.93,731.17,378.93,727.17,382.93,723.17,378.93,727.17,387.93" style="stroke:#A80036;stroke-width:1.0;"/><text fill="#000000" font-family="sans-serif" font-size="13" lengthAdjust="spacing" textLength="7" x="777.433" y="349.4831">1</text><text fill="#000000" font-family="sans-serif" font-size="13" lengthAdjust="spacing" textLength="20" x="710.5448" y="376.972">0..*</text><!--MD5=[18321e14a835830d9a9a79e9f8c86f43]
link User to PhoneNumber--><path codeLine="64" d="M832.5,328.24 C832.5,328.24 832.5,382.88 832.5,382.88 " fill="none" id="User-to-PhoneNumber" style="stroke:#A80036;stroke-width:1.0;"/><polygon fill="#A80036" points="832.5,387.88,836.5,378.88,832.5,382.88,828.5,378.88,832.5,387.88" style="stroke:#A80036;stroke-width:1.0;"/><text fill="#000000" font-family="sans-serif" font-size="13" lengthAdjust="spacing" textLength="7" x="827.2063" y="349.8574">1</text><text fill="#000000" font-family="sans-serif" font-size="13" lengthAdjust="spacing" textLength="7" x="827.2063" y="377.3221">1</text><!--MD5=[cb18e90110b59a3c01269fade0aa85e1]
link User to Introduction--><path codeLine="65" d="M853.59,303 C924.57,303 1090.5,303 1090.5,303 C1090.5,303 1090.5,382.76 1090.5,382.76 " fill="none" id="User-to-Introduction" style="stroke:#A80036;stroke-width:1.0;"/><polygon fill="#A80036" points="1090.5,387.76,1094.5,378.76,1090.5,382.76,1086.5,378.76,1090.5,387.76" style="stroke:#A80036;stroke-width:1.0;"/><text fill="#000000" font-family="sans-serif" font-size="13" lengthAdjust="spacing" textLength="7" x="861.7046" y="298.6641">1</text><text fill="#000000" font-family="sans-serif" font-size="13" lengthAdjust="spacing" textLength="7" x="1087.4" y="377.1729">1</text><!--MD5=[cb18e90110b59a3c01269fade0aa85e1]
link User to Introduction--><path codeLine="66" d="M853.54,310 C920.54,310 1071,310 1071,310 C1071,310 1071,382.8 1071,382.8 " fill="none" id="User-to-Introduction-1" style="stroke:#A80036;stroke-width:1.0;"/><polygon fill="#A80036" points="1071,387.8,1075,378.8,1071,382.8,1067,378.8,1071,387.8" style="stroke:#A80036;stroke-width:1.0;"/><text fill="#000000" font-family="sans-serif" font-size="13" lengthAdjust="spacing" textLength="7" x="861.643" y="326.9828">1</text><text fill="#000000" font-family="sans-serif" font-size="13" lengthAdjust="spacing" textLength="7" x="1063.1469" y="377.2226">1</text><!--MD5=[cb18e90110b59a3c01269fade0aa85e1]
link User to Introduction--><path codeLine="67" d="M853.91,316 C916.97,316 1051.5,316 1051.5,316 C1051.5,316 1051.5,382.77 1051.5,382.77 " fill="none" id="User-to-Introduction-2" style="stroke:#A80036;stroke-width:1.0;"/><polygon fill="#A80036" points="1051.5,387.77,1055.5,378.77,1051.5,382.77,1047.5,378.77,1051.5,387.77" style="stroke:#A80036;stroke-width:1.0;"/><text fill="#000000" font-family="sans-serif" font-size="13" lengthAdjust="spacing" textLength="7" x="861.6559" y="314.6068">1</text><text fill="#000000" font-family="sans-serif" font-size="13" lengthAdjust="spacing" textLength="7" x="1038.8938" y="377.1853">1</text><!--MD5=[2d130e7a94b47d265bffc9c25661db28]
link Friendship to RelationTag--><path codeLine="70" d="M1406.2,405 C1365.92,405 1307,405 1307,405 C1307,405 1307,492.98 1307,492.98 " fill="none" id="Friendship-to-RelationTag" style="stroke:#A80036;stroke-width:1.0;"/><polygon fill="#A80036" points="1307,497.98,1311,488.98,1307,492.98,1303,488.98,1307,497.98" style="stroke:#A80036;stroke-width:1.0;"/><text fill="#000000" font-family="sans-serif" font-size="13" lengthAdjust="spacing" textLength="7" x="1391.5178" y="399.4608">1</text><text fill="#000000" font-family="sans-serif" font-size="13" lengthAdjust="spacing" textLength="7" x="1299.1031" y="487.0348">1</text><!--MD5=[f086e770105d005bd47844aa2054afa7]
link Friendship to CS--><path codeLine="71" d="M1443,438.24 C1443,438.24 1443,492.88 1443,492.88 " fill="none" id="Friendship-to-CS" style="stroke:#A80036;stroke-width:1.0;"/><polygon fill="#A80036" points="1443,497.88,1447,488.88,1443,492.88,1439,488.88,1443,497.88" style="stroke:#A80036;stroke-width:1.0;"/><text fill="#000000" font-family="sans-serif" font-size="13" lengthAdjust="spacing" textLength="7" x="1435.1469" y="459.8574">1</text><text fill="#000000" font-family="sans-serif" font-size="13" lengthAdjust="spacing" textLength="7" x="1435.1469" y="487.3221">1</text><!--MD5=[68dc017d39041f1ea0a3b1a92a4199a7]
link Friendship to RS--><path codeLine="72" d="M1479.88,413 C1526.85,413 1602,413 1602,413 C1602,413 1602,492.76 1602,492.76 " fill="none" id="Friendship-to-RS" style="stroke:#A80036;stroke-width:1.0;"/><polygon fill="#A80036" points="1602,497.76,1606,488.76,1602,492.76,1598,488.76,1602,497.76" style="stroke:#A80036;stroke-width:1.0;"/><text fill="#000000" font-family="sans-serif" font-size="13" lengthAdjust="spacing" textLength="7" x="1487.5774" y="408.9858">1</text><text fill="#000000" font-family="sans-serif" font-size="13" lengthAdjust="spacing" textLength="7" x="1594.1469" y="487.1729">1</text><!--MD5=[96fc8d73c28e6da93774a54888ae8b4d]
link Friendship to ST--><path codeLine="73" d="M1479.52,401 C1558.06,401 1736,401 1736,401 C1736,401 1736,492.72 1736,492.72 " fill="none" id="Friendship-to-ST" style="stroke:#A80036;stroke-width:1.0;"/><polygon fill="#A80036" points="1736,497.72,1740,488.72,1736,492.72,1732,488.72,1736,497.72" style="stroke:#A80036;stroke-width:1.0;"/><text fill="#000000" font-family="sans-serif" font-size="13" lengthAdjust="spacing" textLength="7" x="1487.3989" y="394.5738">1</text><text fill="#000000" font-family="sans-serif" font-size="13" lengthAdjust="spacing" textLength="7" x="1728.1469" y="487.1231">1</text><!--MD5=[9b58eae3bfbc7828c45eaef18718dcc5]
link Mission to Description--><path codeLine="75" d="M1944.47,426 C1912.28,426 1867,426 1867,426 C1867,426 1867,492.77 1867,492.77 " fill="none" id="Mission-to-Description" style="stroke:#A80036;stroke-width:1.0;"/><polygon fill="#A80036" points="1867,497.77,1871,488.77,1867,492.77,1863,488.77,1867,497.77" style="stroke:#A80036;stroke-width:1.0;"/><text fill="#000000" font-family="sans-serif" font-size="13" lengthAdjust="spacing" textLength="7" x="1929.3693" y="424.6703">1</text><text fill="#000000" font-family="sans-serif" font-size="13" lengthAdjust="spacing" textLength="7" x="1859.1469" y="487.1853">1</text><!--MD5=[06195c4385abfb2cc1149809ed651263]
link Mission to Difficulty--><path codeLine="76" d="M1976,438.24 C1976,438.24 1976,492.88 1976,492.88 " fill="none" id="Mission-to-Difficulty" style="stroke:#A80036;stroke-width:1.0;"/><polygon fill="#A80036" points="1976,497.88,1980,488.88,1976,492.88,1972,488.88,1976,497.88" style="stroke:#A80036;stroke-width:1.0;"/><text fill="#000000" font-family="sans-serif" font-size="13" lengthAdjust="spacing" textLength="7" x="1968.1469" y="459.8574">1</text><text fill="#000000" font-family="sans-serif" font-size="13" lengthAdjust="spacing" textLength="7" x="1968.1469" y="487.3221">1</text><!--MD5=[1b928264f6ed5fc3cec9c104177b7d5e]
link Mission to MissionState--><path codeLine="77" d="M2007.52,426 C2038.76,426 2082,426 2082,426 C2082,426 2082,492.77 2082,492.77 " fill="none" id="Mission-to-MissionState" style="stroke:#A80036;stroke-width:1.0;"/><polygon fill="#A80036" points="2082,497.77,2086,488.77,2082,492.77,2078,488.77,2082,497.77" style="stroke:#A80036;stroke-width:1.0;"/><text fill="#000000" font-family="sans-serif" font-size="13" lengthAdjust="spacing" textLength="7" x="2015.6184" y="444.3703">1</text><text fill="#000000" font-family="sans-serif" font-size="13" lengthAdjust="spacing" textLength="7" x="2074.1469" y="487.1853">1</text><!--MD5=[3f316371f0e20c65a8b633363e26b693]
link Mission to IDate--><path codeLine="78" d="M2007.74,413 C2066.88,413 2188,413 2188,413 C2188,413 2188,492.76 2188,492.76 " fill="none" id="Mission-to-IDate" style="stroke:#A80036;stroke-width:1.0;"/><polygon fill="#A80036" points="2188,497.76,2192,488.76,2188,492.76,2184,488.76,2188,497.76" style="stroke:#A80036;stroke-width:1.0;"/><text fill="#000000" font-family="sans-serif" font-size="13" lengthAdjust="spacing" textLength="7" x="2015.4488" y="408.7631">1</text><text fill="#000000" font-family="sans-serif" font-size="13" lengthAdjust="spacing" textLength="7" x="2180.1469" y="487.1729">1</text><!--MD5=[303e584958cdacc08049cef86485f7f7]
link Mission to FDate--><path codeLine="79" d="M2007.65,401 C2088.09,401 2294,401 2294,401 C2294,401 2294,492.72 2294,492.72 " fill="none" id="Mission-to-FDate" style="stroke:#A80036;stroke-width:1.0;"/><polygon fill="#A80036" points="2294,497.72,2298,488.72,2294,492.72,2290,488.72,2294,497.72" style="stroke:#A80036;stroke-width:1.0;"/><text fill="#000000" font-family="sans-serif" font-size="13" lengthAdjust="spacing" textLength="7" x="2015.3391" y="394.1381">1</text><text fill="#000000" font-family="sans-serif" font-size="13" lengthAdjust="spacing" textLength="7" x="2286.1469" y="487.1231">1</text><!--MD5=[d608b8543f38ee47d1d2c0579a9d376e]
link Post to PostDescription--><path codeLine="81" d="M690.19,67 C642.75,67 559,67 559,67 C559,67 559,146.76 559,146.76 " fill="none" id="Post-to-PostDescription" style="stroke:#A80036;stroke-width:1.0;"/><polygon fill="#A80036" points="559,151.76,563,142.76,559,146.76,555,142.76,559,151.76" style="stroke:#A80036;stroke-width:1.0;"/><text fill="#000000" font-family="sans-serif" font-size="13" lengthAdjust="spacing" textLength="7" x="675.4659" y="62.7631">1</text><text fill="#000000" font-family="sans-serif" font-size="13" lengthAdjust="spacing" textLength="7" x="551.1469" y="141.1729">1</text><!--MD5=[c663dbd8c35d8e520d27e8707f144044]
link Post to PostTag--><path codeLine="82" d="M697,92.24 C697,92.24 697,146.88 697,146.88 " fill="none" id="Post-to-PostTag" style="stroke:#A80036;stroke-width:1.0;"/><polygon fill="#A80036" points="697,151.88,701,142.88,697,146.88,693,142.88,697,151.88" style="stroke:#A80036;stroke-width:1.0;"/><text fill="#000000" font-family="sans-serif" font-size="13" lengthAdjust="spacing" textLength="7" x="683.0531" y="113.8574">1</text><text fill="#000000" font-family="sans-serif" font-size="13" lengthAdjust="spacing" textLength="20" x="681.6313" y="141.3221">0..*</text><!--MD5=[89323216973502bd81036acbac8db44b]
link Post to Comments--><path codeLine="83" d="M746.25,92.24 C746.25,92.24 746.25,146.88 746.25,146.88 " fill="none" id="Post-to-Comments" style="stroke:#A80036;stroke-width:1.0;"/><polygon fill="#A80036" points="746.25,151.88,750.25,142.88,746.25,146.88,742.25,142.88,746.25,151.88" style="stroke:#A80036;stroke-width:1.0;"/><text fill="#000000" font-family="sans-serif" font-size="13" lengthAdjust="spacing" textLength="7" x="744.3078" y="113.8574">1</text><text fill="#000000" font-family="sans-serif" font-size="13" lengthAdjust="spacing" textLength="20" x="716.3172" y="141.3221">0..*</text><!--MD5=[f4d611d9f33f06bbb84b4b51d58eb818]
link Comments to User--><path codeLine="85" d="M806.83,202.2 C806.83,202.2 806.83,272.85 806.83,272.85 " fill="none" id="Comments-to-User" style="stroke:#A80036;stroke-width:1.0;"/><polygon fill="#A80036" points="806.83,277.85,810.83,268.85,806.83,272.85,802.83,268.85,806.83,277.85" style="stroke:#A80036;stroke-width:1.0;"/><text fill="#000000" font-family="sans-serif" font-size="13" lengthAdjust="spacing" textLength="7" x="806.2479" y="223.8076">1</text><text fill="#000000" font-family="sans-serif" font-size="13" lengthAdjust="spacing" textLength="7" x="795.2792" y="267.2848">1</text><!--MD5=[c796c14e9c02fe07c9ddf0fce13a80ca]
link Introduction to Date--><path codeLine="87" d="M1068,438.24 C1068,438.24 1068,492.88 1068,492.88 " fill="none" id="Introduction-to-Date" style="stroke:#A80036;stroke-width:1.0;"/><polygon fill="#A80036" points="1068,497.88,1072,488.88,1068,492.88,1064,488.88,1068,497.88" style="stroke:#A80036;stroke-width:1.0;"/><text fill="#000000" font-family="sans-serif" font-size="13" lengthAdjust="spacing" textLength="7" x="1059.4156" y="459.8574">1</text><text fill="#000000" font-family="sans-serif" font-size="13" lengthAdjust="spacing" textLength="7" x="1060.1469" y="487.3221">1</text><!--MD5=[c4fa617b89d669197ce3ef75082037f4]
link Introduction to SI--><path codeLine="88" d="M1110.23,422 C1139.34,422 1174,422 1174,422 C1174,422 1174,492.77 1174,492.77 " fill="none" id="Introduction-to-SI" style="stroke:#A80036;stroke-width:1.0;"/><polygon fill="#A80036" points="1174,497.77,1178,488.77,1174,492.77,1170,488.77,1174,497.77" style="stroke:#A80036;stroke-width:1.0;"/><text fill="#000000" font-family="sans-serif" font-size="13" lengthAdjust="spacing" textLength="7" x="1118.1083" y="419.6946">1</text><text fill="#000000" font-family="sans-serif" font-size="13" lengthAdjust="spacing" textLength="7" x="1166.1469" y="487.1853">1</text><!--MD5=[2e6844f03e501459517199bf6d35ca23]
@startuml DDD

    allowmixing
    skinparam linetype ortho
    hide circle

    package "Aggregate User" {
        object "<<root>>\nUser" as User
        object "<<value>>\nId" as Id
        object "<<value>>\nName" as Name
        object "<<value>>\nPassword" as Pass
        object "<<value>>\nBirthDate" as BirthDate
        object "<<value>>\nEmail" as Email
        object "<<value>>\nState" as State
        object "<<value>>\nTag" as Tag
        object "<<value>>\nPhoneNumber" as PhoneNumber
        object "<<value>>\nFriend" as ExternalUser
    }

    package "Aggregate Introduction" {
        object "<<root>>\nIntroduction" as Introduction
        object "<<value>>\nDate" as Date
        object "<<value>>\nState" as SI
    }

    package "Aggregate Post" {
        object "<<root>>\nPost" as Post
        object "<<value>>\nDescription" as PostDescription
        object "<<value>>\nPostTag" as PostTag
        object "<<value>>\nComments" as Comments
    }

    package "Aggregate Friendship" {
        object "<<root>>\nFriendship" as Friendship
        object "<<value>>\nRelationTag" as RelationTag
        object "<<value>>\nConnectionStrengh" as CS
        object "<<value>>\nRelationshipStrengh" as RS
        object "<<value>>\nState" as ST
    }

    package "Aggregate Mission" {
        object "<<root>>\nMission" as Mission
        object "<<value>>\nDescription" as Description
        object "<<value>>\nDifficulty" as Difficulty
        object "<<value>>\nState" as MissionState
        object "<<value>>\nInitialDate" as IDate
        object "<<value>>\nFinalDate" as FDate
    }



    User "1" - -> "1" User
    User "1" - -> "1" Id
    User "1" - -> "1" Pass
    User "2" - -> "1" Friendship
    User "1" - -> "0..*" Mission

    User "1" - -> "*" ExternalUser
    User "1" - -> "*" Post
    User "1" - -> "1" Name
    User "1" - -> "1" BirthDate
    User "1" - -> "1" Email
    User "1" - -> "1" State
    User "1" - -> "0..*" Tag
    User "1" - -> "1" PhoneNumber
    User "1" - -> "1" Introduction
    User "1" - -> "1" Introduction
    User "1" - -> "1" Introduction
    User "1" <- - "0.." Mission

    Friendship "1" - -> "1" RelationTag
    Friendship "1" - -> "1" CS
    Friendship "1" - -> "1" RS
    Friendship "1" - -> "1" ST

    Mission "1" - -> "1" Description
    Mission "1" - -> "1" Difficulty
    Mission "1" - -> "1" MissionState
    Mission "1" - -> "1" IDate
    Mission "1" - -> "1" FDate

    Post "1" - -> "1" PostDescription
    Post "1" - -> "0..*" PostTag
    Post "1" - -> "0..*" Comments

    Comments "1" - -> "1" User

    Introduction "1" - -> "1" Date
    Introduction "1" - -> "1" SI
    

    @enduml

PlantUML version 1.2021.7(Sun May 23 13:40:07 WEST 2021)
(GPL source distribution)
Java Runtime: Java(TM) SE Runtime Environment
JVM: Java HotSpot(TM) 64-Bit Server VM
Default Encoding: Cp1252
Language: pt
Country: PT
--></g></svg>